<svg xmlns="http://www.w3.org/2000/svg" xmlns:xlink="http://www.w3.org/1999/xlink" viewBox="0 0 144.229 127.664">
  <defs>
    <radialGradient id="radial-gradient" cx="210.047" cy="-912.939" r="193.636" gradientTransform="translate(-137.933 856.583) scale(1 0.779)" gradientUnits="userSpaceOnUse">
      <stop offset="0" stop-color="#d7df23"/>
      <stop offset="1" stop-color="#39b54a"/>
    </radialGradient>
    <radialGradient id="radial-gradient-3" cx="210.047" cy="-912.939" r="193.636" xlink:href="#radial-gradient"/>
    <radialGradient id="radial-gradient-13" cx="8203.564" cy="-912.939" r="193.636" gradientTransform="matrix(-1, 0, 0, 0.779, 8275.61, 856.583)" xlink:href="#radial-gradient"/>
  </defs>
  <title>Asset 3</title>
  <g id="Layer_2" data-name="Layer 2">
    <g id="Layer_1-2" data-name="Layer 1">
      <g>
        <g>
          <path d="M107.579,79.1l.019-.01,0,.018a349.461,349.461,0,0,1,33.975-15.846l.742-.3a330.287,330.287,0,0,0,1.5-51.856A497.821,497.821,0,0,0,97.729,48.656l.216.541A205.737,205.737,0,0,1,107.579,79.1Z" fill="url(#radial-gradient)"/>
          <path d="M2.654,63.265A349.461,349.461,0,0,1,36.629,79.111l0-.018.019.01A206.163,206.163,0,0,1,46.284,49.2l.216-.541A497.821,497.821,0,0,0,.406,11.105a330.287,330.287,0,0,0,1.5,51.856Z" fill="url(#radial-gradient)"/>
          <path d="M72.1,73.613l.013-.016.013.016a265.223,265.223,0,0,1,23.6-24.759l.5-.467A375.119,375.119,0,0,0,72.115,0,375.047,375.047,0,0,0,48,48.387l.5.467A265.375,265.375,0,0,1,72.1,73.613Z" fill="url(#radial-gradient-3)"/>
          <path d="M38.349,83.345q-.126.635-.243,1.262-.149.791-.282,1.571c-.072.418-.143.835-.209,1.249-.083.511-.158,1.016-.232,1.52-.059.41-.119.82-.173,1.225-.067.5-.125.99-.183,1.48-.047.4-.095.794-.137,1.186-.051.493-.093.978-.136,1.463-.033.377-.069.756-.1,1.127-.037.5-.063.986-.091,1.475-.018.345-.043.695-.057,1.036-.023.537-.032,1.061-.043,1.586-.006.281-.018.568-.02.845-.006.8,0,1.581.023,2.35.031,1.066.1,2.1.187,3.124.012.146.022.294.036.439.091.965.212,1.906.356,2.827.026.172.054.343.082.513.153.911.328,1.8.532,2.67.031.134.067.265.1.4.222.9.464,1.78.74,2.628l0,.007A55.612,55.612,0,0,1,53.3,108.385c.031-.2.073-.41.108-.614.038-.221.075-.442.118-.665.064-.334.138-.671.213-1.009.048-.213.091-.424.143-.638.088-.367.188-.739.289-1.111.052-.191.1-.379.153-.571.132-.461.277-.927.428-1.4.035-.106.064-.21.1-.317.189-.574.394-1.153.611-1.736.072-.193.153-.388.228-.582.151-.392.3-.784.467-1.18.106-.259.223-.521.336-.782.144-.334.287-.667.439-1,.131-.29.272-.582.409-.874.1-.218.2-.434.3-.653q-.5-.4-1.021-.807c-.257-.2-.508-.4-.771-.6-.526-.4-1.071-.8-1.62-1.209-.2-.151-.4-.3-.61-.452q-1.146-.829-2.355-1.665c-.178-.123-.366-.246-.546-.369-.635-.433-1.276-.867-1.936-1.3-.326-.214-.665-.429-1-.644-.531-.344-1.063-.688-1.61-1.033-.384-.241-.778-.483-1.169-.725-.515-.319-1.032-.638-1.56-.957-.419-.253-.846-.506-1.273-.76-.525-.311-1.053-.622-1.59-.934q-.657-.381-1.327-.763c-.25-.143-.506-.285-.758-.428C38.45,82.851,38.4,83.1,38.349,83.345Z" fill="url(#radial-gradient)"/>
          <path d="M38.965,80.384c.612.341,1.2.682,1.8,1.023.285.162.578.325.86.488q2.985,1.721,5.726,3.437c.3.185.58.37.871.555.6.384,1.207.768,1.794,1.151.342.224.674.447,1.009.67.517.344,1.031.688,1.532,1.031.349.239.69.477,1.03.715q.7.491,1.386.98c.342.246.679.492,1.014.737q.649.478,1.279.955c.326.247.651.493.969.74.145.112.3.226.443.338.08-.153.171-.31.253-.464.164-.3.333-.613.5-.921q.363-.657.747-1.323.267-.461.542-.927c.27-.455.549-.914.832-1.375.188-.305.376-.61.57-.918.306-.484.623-.973.945-1.464.19-.29.375-.578.57-.871.365-.546.745-1.1,1.129-1.651.166-.242.327-.48.5-.723q1.695-2.409,3.613-4.9c.165-.215.339-.432.507-.647.4-.512.793-1.022,1.206-1.538A255.479,255.479,0,0,0,48.042,51.564,198.489,198.489,0,0,0,38.965,80.384Z" fill="url(#radial-gradient)"/>
          <path d="M73.636,75.485c.412.516.807,1.026,1.206,1.538.167.215.341.432.507.647q1.917,2.487,3.612,4.9c.17.243.331.481.5.723.383.553.763,1.1,1.128,1.651.2.293.381.581.571.871.321.491.639.98.945,1.465.193.307.38.611.567.915q.427.693.835,1.377.276.466.543.929.382.664.745,1.32c.17.309.339.616.5.922.082.154.173.311.254.464.143-.112.3-.226.443-.338.317-.247.642-.493.969-.74q.628-.477,1.279-.955.5-.368,1.013-.737c.454-.326.918-.653,1.386-.98.341-.238.682-.476,1.03-.715.5-.343,1.015-.687,1.532-1.031.336-.223.667-.446,1.01-.67.586-.383,1.189-.767,1.794-1.151.291-.185.574-.37.87-.555q2.74-1.715,5.727-3.437c.281-.163.574-.326.86-.488.6-.341,1.19-.682,1.8-1.023a198.15,198.15,0,0,0-9.078-28.82A255.419,255.419,0,0,0,73.636,75.485Z" fill="url(#radial-gradient)"/>
          <path d="M11.434,95.633c.373.071.754.14,1.125.212q1.8.351,3.554.718l.019,0q1.728.363,3.4.745c.364.083.715.168,1.074.252.753.176,1.5.352,2.237.533.415.1.82.206,1.228.31.661.167,1.319.335,1.964.506.425.113.841.227,1.258.342q.924.252,1.827.511.615.177,1.22.356c.595.176,1.18.354,1.76.534.385.119.769.239,1.147.36.206.066.42.129.624.2,0-.159,0-.324.006-.484,0-.349,0-.7.012-1.058q.012-.693.037-1.4.021-.525.046-1.057.038-.735.091-1.484c.024-.349.048-.7.077-1.051.044-.528.095-1.064.149-1.6.034-.334.064-.666.1-1,.066-.6.144-1.2.223-1.81.038-.291.071-.577.112-.87q.178-1.282.393-2.595c.009-.052.015-.1.024-.154.153-.922.322-1.856.5-2.8.066-.341.14-.689.209-1.033.1-.507.2-1.009.306-1.522A335.962,335.962,0,0,0,3.561,65.908,192.243,192.243,0,0,0,9.341,95.24C10.048,95.368,10.738,95.5,11.434,95.633Z" fill="url(#radial-gradient)"/>
          <path d="M108.075,81.29c.105.5.2.988.3,1.48.072.361.15.726.217,1.083q.249,1.3.461,2.571c.034.206.066.409.1.613.128.785.248,1.564.355,2.333.047.338.085.667.128,1,.072.561.145,1.121.206,1.673.042.372.076.739.112,1.107.05.5.1,1,.139,1.5.032.38.057.755.083,1.131.033.471.063.94.086,1.4q.029.564.049,1.12.024.681.036,1.348c.007.363.012.726.013,1.084,0,.158.006.322.006.48.2-.067.421-.131.628-.2.375-.12.756-.238,1.137-.357.583-.18,1.172-.36,1.771-.537q.6-.177,1.21-.353.909-.261,1.841-.515c.412-.113.823-.226,1.243-.337.651-.173,1.315-.343,1.983-.512.4-.1.8-.2,1.21-.3.741-.183,1.5-.361,2.259-.538.352-.082.7-.166,1.053-.247,1.116-.254,2.247-.5,3.4-.746l.019,0q1.745-.366,3.547-.716c.392-.076.794-.149,1.19-.224.676-.129,1.347-.259,2.036-.383a192.17,192.17,0,0,0,5.78-29.332A335.962,335.962,0,0,0,108.075,81.29Z" fill="url(#radial-gradient)"/>
          <path d="M107.711,97.683q-.055-1.212-.151-2.46c-.017-.218-.041-.442-.06-.661-.053-.626-.108-1.254-.177-1.893-.035-.336-.08-.679-.12-1.019-.063-.533-.126-1.065-.2-1.607-.051-.374-.109-.753-.163-1.131-.077-.523-.155-1.047-.241-1.577-.062-.388-.13-.78-.2-1.171q-.138-.8-.29-1.616c-.072-.391-.149-.784-.227-1.179-.049-.253-.1-.51-.156-.765-.245.138-.492.276-.734.414q-.714.406-1.414.814-.783.453-1.546.908c-.452.268-.9.537-1.345.805-.509.307-1.008.615-1.5.922-.424.263-.848.525-1.264.788-.5.314-.983.627-1.468.941-.392.254-.787.508-1.17.761-.494.326-.973.652-1.452.977-.355.24-.714.481-1.06.721-.5.345-.98.689-1.462,1.034-.307.218-.621.438-.92.656-.531.386-1.042.772-1.552,1.157-.232.175-.473.351-.7.525-.728.56-1.437,1.119-2.12,1.675-.556.452-1.095.905-1.623,1.358-.176.15-.343.3-.516.452-.347.3-.691.605-1.025.907-.2.177-.385.355-.577.532-.3.277-.6.554-.884.831-.192.184-.38.368-.567.553q-.417.408-.815.816c-.18.183-.357.365-.531.548-.265.278-.522.555-.775.832-.16.174-.321.349-.476.522-.268.3-.526.6-.78.9-.125.148-.255.3-.377.443q-.528.639-1.017,1.274c-.015.021-.032.041-.048.06l-.01.014a63.211,63.211,0,0,1,16.772,3.239c.2-.122.412-.242.616-.363.237-.141.473-.283.715-.422.337-.194.683-.385,1.03-.576.238-.131.473-.263.716-.392.381-.2.774-.4,1.168-.6.223-.114.441-.229.668-.341.5-.246,1.008-.488,1.523-.728.136-.064.266-.129.4-.192q.983-.453,2.01-.892c.2-.086.409-.169.611-.254.493-.207.986-.413,1.493-.615.272-.109.553-.214.828-.322.449-.174.9-.348,1.358-.519.307-.114.621-.226.933-.339s.612-.225.925-.336c.007-.369.01-.741.011-1.117,0-.293,0-.583,0-.881-.006-.554-.025-1.119-.046-1.685C107.725,98.165,107.722,97.927,107.711,97.683Z" fill="url(#radial-gradient)"/>
          <path d="M106.733,104.684c-.48.18-.957.361-1.424.545-.261.1-.516.207-.773.311-.418.169-.833.338-1.24.51-.266.112-.529.226-.791.339-.388.169-.771.338-1.149.51-.258.117-.515.234-.769.352-.374.174-.741.351-1.106.528-.239.116-.479.232-.714.35-.383.192-.757.386-1.128.582-.2.105-.4.208-.6.314-.5.268-.982.539-1.456.813-.06.034-.123.068-.182.1l-.01,0a52.585,52.585,0,0,1,13.9,8c.108-.023.227-.04.336-.063,1.117-.239,2.264-.459,3.45-.652.151-.025.305-.046.457-.07,1.254-.2,2.537-.374,3.863-.521l.1-.01c1.333-.146,2.707-.263,4.11-.358.126-.008.248-.02.375-.028,1.37-.087,2.778-.146,4.212-.185.117,0,.227-.013.344-.016q.294-.53.582-1.072c.133-.249.268-.494.4-.748.285-.551.564-1.116.843-1.685.091-.187.185-.367.275-.556q.55-1.149,1.081-2.345c.064-.143.125-.293.188-.437.286-.655.57-1.316.847-1.991.123-.3.241-.607.362-.91.212-.532.424-1.064.631-1.608.135-.355.266-.718.4-1.079.187-.508.373-1.016.555-1.533.137-.389.27-.782.4-1.176.171-.5.341-1.009.508-1.522q.2-.621.4-1.252c.073-.232.144-.469.216-.7-.289.054-.581.107-.868.162q-.876.166-1.739.336-.929.184-1.839.372c-.564.116-1.125.233-1.679.352-.6.129-1.2.26-1.792.392-.539.121-1.079.241-1.61.364-.59.137-1.169.276-1.748.416-.513.124-1.027.247-1.531.373-.581.145-1.149.294-1.717.443-.482.125-.968.25-1.44.378-.583.158-1.151.32-1.722.481-.435.123-.878.245-1.306.37-.62.182-1.222.368-1.825.554-.358.11-.725.217-1.077.329q-1.414.447-2.766.91c-.737.253-1.458.511-2.169.772C107.174,104.515,106.956,104.6,106.733,104.684Z" fill="url(#radial-gradient)"/>
          <path d="M36.279,116.584c-.307-.87-.589-1.762-.838-2.686-.031-.117-.059-.238-.089-.355-.253-.977-.481-1.975-.67-3.008-.005-.026-.008-.054-.013-.081-.187-1.038-.337-2.107-.459-3.2-.011-.1-.025-.193-.036-.292-.112-1.067-.188-2.163-.238-3.279,0-.091-.016-.176-.019-.268q-.686-.23-1.385-.456c-.318-.1-.628-.206-.95-.307-.721-.226-1.461-.448-2.207-.669-.225-.066-.442-.135-.669-.2q-1.485-.43-3.03-.847c-.131-.035-.267-.068-.4-.1q-1.344-.357-2.731-.7c-.341-.085-.692-.167-1.036-.25-.729-.177-1.46-.353-2.207-.525-.419-.1-.846-.19-1.271-.285-.691-.155-1.386-.309-2.093-.459-.466-.1-.94-.2-1.412-.3q-1.015-.208-2.047-.413-.769-.151-1.55-.3c-.307-.058-.62-.115-.929-.172.07.229.14.462.212.69q.208.669.424,1.329c.159.487.32.968.482,1.447.15.437.3.872.451,1.3.166.47.334.933.5,1.395.155.42.309.841.468,1.254.175.459.354.909.533,1.359.159.4.318.8.48,1.194.188.456.381.9.573,1.348.16.369.317.741.478,1.1.208.464.42.915.632,1.368.154.331.306.667.463.991.241.5.488.985.735,1.471.133.261.263.529.4.787q.576,1.1,1.172,2.159.487.861.993,1.69c.105.172.212.339.317.51.234.377.469.752.708,1.12.128.2.259.391.389.586.222.333.445.664.671.989.138.2.277.393.417.588q.336.469.679.928c.142.191.284.38.428.567.235.3.472.6.709.9.141.173.28.349.421.519.259.314.521.62.786.924.122.141.244.287.367.426q.531.6,1.071,1.162c.037.039.074.081.111.12l.008.007a42.469,42.469,0,0,1,10.28-10.818C36.33,116.762,36.309,116.669,36.279,116.584Z" fill="url(#radial-gradient)"/>
          <path d="M72.588,78c-.155-.2-.315-.4-.473-.6-.154.195-.31.391-.462.585q-.468.6-.922,1.194-.5.654-.983,1.3c-.284.38-.566.759-.841,1.136-.323.441-.636.879-.947,1.316-.259.363-.517.726-.767,1.085-.311.447-.611.889-.91,1.331-.232.345-.468.69-.693,1.032-.3.454-.587.9-.874,1.353-.2.322-.415.646-.614.966-.29.467-.565.927-.841,1.388-.177.3-.361.6-.532.888-.3.507-.573,1.007-.851,1.506-.132.239-.273.481-.4.718-.4.733-.777,1.459-1.134,2.175-.494.99-.94,1.965-1.358,2.93-.063.143-.129.288-.189.431-.388.914-.738,1.814-1.057,2.7-.061.171-.122.341-.18.511-.307.886-.583,1.761-.821,2.62-.036.131-.067.26-.1.391-.239.9-.45,1.791-.611,2.661a64.933,64.933,0,0,1,16.09-2c.331,0,.661.006.989.013.125-.173.263-.348.392-.521.148-.2.3-.4.448-.6.22-.284.45-.57.682-.855.151-.186.3-.372.454-.558.262-.313.537-.627.813-.94.141-.16.276-.32.42-.481.361-.4.736-.8,1.119-1.2.071-.075.137-.149.209-.224q.692-.717,1.432-1.437c.124-.119.254-.239.379-.358.373-.356.748-.713,1.138-1.07.194-.178.4-.355.595-.533.333-.3.665-.6,1.009-.894.232-.2.473-.4.71-.6s.447-.384.679-.576Q83.3,94.236,83,93.677c-.126-.237-.246-.471-.377-.71-.3-.548-.616-1.1-.938-1.662-.1-.182-.2-.36-.31-.543q-.651-1.112-1.36-2.247c-.1-.16-.21-.323-.312-.484-.376-.595-.759-1.193-1.159-1.8-.2-.3-.405-.6-.608-.9-.319-.473-.639-.946-.973-1.424-.237-.341-.484-.685-.729-1.027-.318-.447-.638-.894-.968-1.345-.264-.361-.535-.724-.807-1.088-.327-.437-.657-.876-.995-1.318Q73.035,78.567,72.588,78Z" fill="url(#radial-gradient)"/>
        </g>
        <path d="M107.881,116.584c.307-.87.59-1.762.838-2.686.031-.117.059-.238.089-.355.254-.977.481-1.975.67-3.008.005-.026.008-.054.013-.081.188-1.038.338-2.107.459-3.2.012-.1.025-.193.036-.292.113-1.067.189-2.163.238-3.279,0-.091.016-.176.02-.268q.684-.23,1.385-.456c.317-.1.628-.206.95-.307.72-.226,1.461-.448,2.206-.669.225-.066.442-.135.669-.2q1.485-.43,3.031-.847c.13-.035.266-.068.4-.1q1.344-.357,2.731-.7c.341-.085.692-.167,1.037-.25.728-.177,1.46-.353,2.207-.525.418-.1.846-.19,1.27-.285.692-.155,1.387-.309,2.094-.459.465-.1.939-.2,1.412-.3q1.016-.208,2.047-.413.769-.151,1.55-.3c.307-.058.619-.115.929-.172-.071.229-.141.462-.212.69q-.21.669-.425,1.329c-.159.487-.32.968-.482,1.447-.149.437-.3.872-.45,1.3-.166.47-.335.933-.5,1.395-.154.42-.309.841-.468,1.254-.174.459-.354.909-.532,1.359-.159.4-.318.8-.481,1.194-.188.456-.381.9-.573,1.348-.159.369-.316.741-.478,1.1-.207.464-.419.915-.631,1.368-.154.331-.307.667-.463.991-.242.5-.489.985-.736,1.471-.133.261-.262.529-.4.787q-.576,1.1-1.172,2.159-.488.861-.992,1.69c-.105.172-.213.339-.318.51-.234.377-.469.752-.707,1.12-.128.2-.259.391-.389.586-.222.333-.446.664-.672.989-.138.2-.277.393-.416.588q-.337.469-.679.928c-.143.191-.285.38-.429.567-.234.3-.471.6-.709.9-.14.173-.279.349-.42.519-.259.314-.522.62-.786.924-.123.141-.244.287-.368.426q-.53.6-1.071,1.162c-.037.039-.073.081-.111.12l-.007.007a42.486,42.486,0,0,0-10.28-10.818C107.83,116.762,107.851,116.669,107.881,116.584Z" fill="url(#radial-gradient-13)"/>
      </g>
    </g>
  </g>
</svg>
