<svg xmlns:xlink="http://www.w3.org/1999/xlink" xmlns="http://www.w3.org/2000/svg" width="93" height="51" viewBox="0 0 93 51" fill="none"><title>Ocean Spray®</title><path fill="#00AEEF" d="M29.279 5.097c1.446-3.12 6.323-4.381 8.56-4.654A84.415 84.415 0 0 1 46.5 0c-4.322 0-7.198 1.09-9.081 2.557-2.523 1.142-4.524 2.898-5.281 5.062-.74 2.165-.1 4.67.353 5.694.017.016.034.068.05.119-2.64-1.228-4.994-4.568-3.262-8.335ZM55.934.528C54.438.375 44.112-.545 39.992 3.955c-5.23 5.71-.656 13.619 5.6 14.181-4.743-6.375 6.07-11.659 19.794-9.784 11.789 1.603 23.696 9.017 22.787 19.534-.941 10.91-18.768 19.841-41.606 19.841-24.032 0-42.127-9.8-43.893-21.409C1.244 16.91 10.41 8.403 22.081 3.852c.034-.017.017-.05-.017-.05C8.83 8.301 0 16.328 0 25.5 0 39.58 20.82 51 46.5 51S93 39.58 93 25.5C93 13.193 77.09 2.915 55.934.528Z"></path><path fill="#01184D" d="M22.08 3.852C10.41 8.403 1.245 16.91 2.675 26.318c1.765 11.591 19.86 21.41 43.893 21.41 22.838 0 40.664-8.933 41.606-19.842.908-10.517-10.999-17.931-22.788-19.534-13.722-1.875-24.536 3.41-19.794 9.784.135.17.27.341.42.512.035.05.018.12-.05.136-2.22.46-12.243-1.108-11.906-9.886.067-1.637.79-4.347 3.346-6.341-2.522 1.142-4.523 2.898-5.28 5.062-.74 2.165-.101 4.67.353 5.694a.41.41 0 0 1 .05.119c.05.102.101.239.118.29.017.05-.017.102-.05.102-1.699.12-5.903-1.517-6.055-5.88-.134-3.683 3.448-6.41 8.46-7.177-4.625.648-8.98 1.67-12.933 3.017.034.017.05.051.017.068Z"></path><path fill="#FFFFFF" d="M39.992 3.955c-5.23 5.71-.656 13.619 5.6 14.181.135.17.27.341.42.512.034.05.017.119-.05.136-2.22.46-12.243-1.108-11.907-9.886C34.173 6.05 36.292 0 46.5 0c3.297 0 6.509.188 9.62.545 0 0-11.671-1.465-16.128 3.41Zm-7.383 9.886c.05 0 .084-.051.05-.102-.016-.035-.084-.17-.117-.29-2.64-1.245-4.995-4.602-3.263-8.352 1.447-3.12 6.324-4.381 8.56-4.654-.925.102-1.85.205-2.74.324-5.063.75-8.679 3.477-8.544 7.193.168 4.364 4.356 5.983 6.054 5.88ZM81.867 23.983c1.631 5.267 1.766 6.852-.959 8.966l-1.126-1.994c.235-.154.958-.716.908-1.705-.034-.716-.387-1.5-1.985-3.085-1.06-1.04-4.894-4.38-5.213-4.705.706-.409 2.253-1.415 2.253-1.415l3.549 3.512.067-.051-1.698-4.67s1.934-1.313 2.32-1.654c.135.528 1.127 4.38 1.884 6.8Zm-5.718 4.142-.79-1.602-1.262-2.574c-.706-1.449-1.917-2.114-3.548-1.432-1.446.597-2.388 1.38-2.388 1.38l.975 2.643c.32-.682 1.447-1.977 1.884-2.165.387-.17.757-.051.908.29.134.273.05.528-.303 1.057-.218.323-.387.51-.622.835-1.043 1.415-1.194 2.59-.606 4.09l.118.273c.606 1.398 1.934 2.319 3.23 1.705 1.176-.511 1.176-1.5 1.092-1.875l.05-.017c.337.494 1.01.716 1.582.46 0 0 1.194-.648 1.48-.852l-.993-1.807c-.386.12-.605-.034-.807-.409Zm-2.371 2.13c-.37.171-.942 0-1.245-.63-.672-1.38.471-2.761.471-2.761l.992 2.045c.404.801.135 1.193-.218 1.347ZM55.21 34.382c.169 2.284-1.194 4.176-3.565 4.312-2.489.137-4.036-1.176-4.187-3.545l-.034-1.228c.572 0 2.102-.05 2.607-.085l.05.955c.034.528.42 1.312 1.228 1.261.723-.034 1.093-.63 1.06-1.33-.085-1.158-1.01-1.738-2.136-2.658-1.33-1.006-2.96-2.353-3.078-4.296-.118-2.063 1.127-3.954 3.616-4.04 2.136-.085 3.649 1.38 3.784 3.46l.067.767a57.87 57.87 0 0 1-2.422.222l-.067-.886c-.05-.852-.622-1.347-1.194-1.296-.572.051-1.06.495-1.01 1.296.085 1.295 1.06 1.84 2.204 2.812 1.413 1.057 2.943 2.148 3.077 4.279Zm11.2-4.892 1.632 5.335c-.387.136-2.001.63-2.523.75l-2.724-9.92a72.471 72.471 0 0 0 2.237-.665l.387 1.33.067-.018c.034-1.193.706-1.62 1.749-1.909l.942 2.625c-.337-.102-.925-.034-1.127.034-.975.256-1.06 1.108-.64 2.438Zm-3.867-.205c-.454-2.37-1.413-3.375-2.825-3.051-1.043.221-1.497.903-1.649 1.602l-.067.017-.202-1.057c-.572.103-2 .324-2.354.375l2.136 13.637c.185 0 2.506-.358 2.674-.41l-.774-4.567.067-.017c.387.562 1.094 1.107 2.17.869 1.497-.324 2.102-1.33 1.614-3.904l-.79-3.494Zm-2.355 5.557c-.538.085-.992-.375-1.11-1.04l-.756-4.057c-.118-.835.134-1.21.672-1.312.555-.102.993.34 1.11 1.006l.774 4.056c.1.631-.135 1.245-.69 1.347ZM44.65 30.528l-.336 7.535c-.32 0-2.27-.069-2.573-.103l.37-6.733c.05-.784-.168-1.227-.723-1.261-.555-.051-.942.392-.993 1.21l-.47 6.682c-.22 0-2.254-.205-2.557-.239l.841-10.278c.27.034 1.682.17 2.388.221l-.084 1.194h.084c.337-.648 1.093-1.262 2.085-1.21 1.33.085 2.086.988 1.968 2.982Zm-10.36-3.886c-1.597-.307-2.69-.222-2.69-.222l-.622 2.745c.655-.41 2.135-.733 2.59-.665.403.068.639.34.571.716-.05.29-.269.46-.874.733-.37.17-.623.238-.992.375-1.649.648-2.405 1.415-2.826 3.085l-.067.341c-.286 1.415.27 2.693 1.648 2.966 1.245.29 1.8-.529 1.968-.87h.05c-.017.597.37 1.194.976 1.279 0 0 1.042.17 1.63.239l.32-2.336c-.403-.05-.454-.29-.386-.715l.285-1.773.438-2.88c.286-1.57-.286-2.711-2.018-3.018Zm-.924 7.227c-.152.87-.589 1.057-.959 1.006-.403-.068-.757-.494-.639-1.176.252-1.5 1.984-2.063 1.984-2.063l-.386 2.233Zm-7.013-1.5c-.202.614-.707.904-1.295.733-.572-.17-.79-.664-.589-1.312l.471-1.466c.622.238 3.061.954 3.885 1.159l.757-2.37c.723-2.25-.42-3.698-1.985-4.193-1.53-.477-3.346.086-4.103 2.319L22.3 30.835c-.757 2.284.42 3.767 1.967 4.245 1.598.494 3.414-.069 4.154-2.353l.05-.136c-.251-.068-1.68-.477-2-.563l-.118.341Zm-.522-4.687c.202-.614.69-.938 1.262-.767.572.17.824.699.605 1.33l-.437 1.278c-.32-.069-1.497-.426-1.867-.563l.438-1.278Zm-4.877-2.063c.27-.613.085-1.159-.47-1.38-.539-.222-1.06.05-1.329.63l-1.749 3.955c-.27.613-.084 1.125.454 1.346.572.24 1.11-.017 1.362-.613l.152-.307a22.4 22.4 0 0 0 1.917.784l-.034.068c-.958 2.2-2.842 2.591-4.372 1.96-1.514-.613-2.523-2.198-1.548-4.38l1.632-3.443c.958-2.148 2.758-2.54 4.238-1.927 1.513.631 2.522 2.182 1.564 4.347l-.101.222c-.471-.17-1.497-.58-1.917-.784l.201-.478ZM16.33 15.051c-1.917-1.159-4.12-.92-5.567 1.517l-3.262 5.523c-1.447 2.454-.623 4.534 1.295 5.693 1.917 1.16 4.12.938 5.566-1.517l3.263-5.523c1.446-2.454.622-4.534-1.295-5.693Zm-3.952 9.563c-.656 1.108-1.43 1.227-2.153.767-.74-.444-1.009-1.177-.353-2.302l2.892-4.892c.623-1.056 1.413-1.176 2.136-.733.74.444.992 1.194.37 2.268l-2.892 4.892ZM84.524 27.051c.743 0 1.346-.61 1.346-1.363 0-.754-.603-1.364-1.346-1.364-.743 0-1.345.61-1.345 1.363 0 .754.602 1.364 1.345 1.364Z"></path><path fill="#01184D" d="m85.432 25.977.034.034-.32.188c-.033-.034-.084-.085-.117-.17-.05-.086-.084-.12-.118-.154-.05-.034-.1-.051-.151-.034-.034 0-.068.017-.135.051l-.084.034-.067.034.269.46-.337.205-.74-1.313c.085-.05.202-.119.354-.204.168-.085.252-.136.269-.154a.677.677 0 0 1 .286-.085c.151 0 .269.069.353.205.067.102.084.204.05.29a.52.52 0 0 1-.168.221c.084-.034.168-.034.219-.034.117.017.202.085.286.222l.067.119c0 .017.017.017.017.034.016.017.033.034.033.051Zm-.807-.682c-.034-.068-.1-.102-.185-.085-.05.017-.134.034-.218.085l-.085.052.219.375.135-.086c.084-.05.134-.102.15-.153a.25.25 0 0 0-.016-.188Z"></path></svg>